<svg viewBox="0 0 800 600" xmlns="http://www.w3.org/2000/svg">
  <!-- Angular geometric patterns with thin lines inspired by African textiles -->
  <g fill="none" stroke="#666666" stroke-width="1">
    
    <!-- Large angular zigzag pattern -->
    <polyline points="0,150 100,50 200,150 300,50 400,150 500,50 600,150 700,50 800,150"/>
    <polyline points="0,180 100,80 200,180 300,80 400,180 500,80 600,180 700,80 800,180"/>
    
    <!-- Diamond/rhombus patterns -->
    <polygon points="150,250 200,200 250,250 200,300"/>
    <polygon points="350,280 400,230 450,280 400,330"/>
    <polygon points="550,220 600,170 650,220 600,270"/>
    
    <!-- Angular tribal-inspired shapes -->
    <polygon points="50,350 100,320 120,380 80,400"/>
    <polygon points="250,380 300,350 320,410 280,430"/>
    <polygon points="450,360 500,330 520,390 480,410"/>
    <polygon points="650,340 700,310 720,370 680,390"/>
    
    <!-- Sharp triangular elements -->
    <polygon points="100,500 125,475 150,500 125,525"/>
    <polygon points="300,480 325,455 350,480 325,505"/>
    <polygon points="500,520 525,495 550,520 525,545"/>
    
    <!-- Angular connecting lines -->
    <line x1="0" y1="400" x2="800" y2="350"/>
    <line x1="0" y1="450" x2="800" y2="430"/>
    <line x1="0" y1="500" x2="800" y2="480"/>
    
    <!-- Complex geometric motifs -->
    <polygon points="75,100 100,85 125,110 100,125"/>
    <polygon points="275,120 300,105 325,130 300,145"/>
    <polygon points="475,80 500,65 525,90 500,105"/>
    <polygon points="675,110 700,95 725,120 700,135"/>
    
    <!-- Additional angular patterns -->
    <polyline points="50,250 75,225 100,250 125,225 150,250"/>
    <polyline points="350,300 375,275 400,300 425,275 450,300"/>
    <polyline points="550,280 575,255 600,280 625,255 650,280"/>
    
    <!-- Vertical angular lines -->
    <polyline points="200,100 220,150 240,100 260,150 280,100"/>
    <polyline points="500,120 520,170 540,120 560,170 580,120"/>
    
    <!-- Bottom angular border -->
    <polyline points="0,550 50,520 100,560 150,530 200,570 250,540 300,580 350,550 400,590 450,560 500,580 550,570 600,580 650,560 700,590 750,570 800,580"/>
    
  </g>
</svg>