<svg width="1200" height="800" viewBox="0 0 1200 800" xmlns="http://www.w3.org/2000/svg">
            <!-- Background -->
            <rect width="1200" height="800" fill="transparent"/>
            
            <!-- Angular tribal patterns -->
            <g stroke="#8b4513" stroke-width="2" fill="none" opacity="0.15">
                <!-- Angular wave patterns -->
                <polyline points="0,250 80,200 160,250 240,200 320,250 400,200 480,250 560,200 640,250 720,200 800,250 880,200 960,250 1040,200 1120,250 1200,200"/>
                
                <polyline points="0,550 100,500 200,550 300,500 400,550 500,500 600,550 700,500 800,550 900,500 1000,550 1100,500 1200,550"/>
            </g>
            
            <!-- Geometric angular shapes -->
            <g stroke="#d2691e" stroke-width="1.5" fill="none" opacity="0.2">
                <!-- Triangle clusters -->
                <polygon points="200,350 230,320 260,350 230,380"/>
                <polygon points="210,340 240,310 270,340"/>
                <polygon points="220,360 250,330 280,360"/>
                
                <polygon points="700,280 730,250 760,280 730,310"/>
                <polygon points="710,270 740,240 770,270"/>
                
                <polygon points="1000,600 1030,570 1060,600 1030,630"/>
                <polygon points="1010,590 1040,560 1070,590"/>
                <polygon points="1020,610 1050,580 1080,610"/>
            </g>
            
            <!-- Angular plant/tree forms -->
            <g stroke="#228b22" stroke-width="2" fill="none" opacity="0.18">
                <!-- Stylized angular trees -->
                <polyline points="150,500 150,450 130,430 150,450 170,430"/>
                <polyline points="150,450 140,420 150,450 160,420"/>
                
                <polyline points="600,650 600,600 580,580 600,600 620,580"/>
                <polyline points="600,600 590,570 600,600 610,570"/>
                
                <polyline points="950,400 950,350 930,330 950,350 970,330"/>
                <polyline points="950,350 940,320 950,350 960,320"/>
            </g>
            
            <!-- Accent angular elements -->
            <g stroke="#ffd700" stroke-width="1" fill="none" opacity="0.25">
                <polygon points="400,450 415,435 430,450 415,465"/>
                <polygon points="800,350 815,335 830,350 815,365"/>
                <polygon points="500,680 515,665 530,680 515,695"/>
            </g>
        </svg>