<svg width="1200" height="800" viewBox="0 0 1200 800" xmlns="http://www.w3.org/2000/svg">
            <!-- Background -->
            <rect width="1200" height="800" fill="#faf9f7"/>
            
            <!-- Subtle zigzag patterns -->
            <g stroke="#e8e6e0" stroke-width="1" fill="none" opacity="0.4">
                <!-- Horizontal zigzags -->
                <polyline points="0,200 50,180 100,200 150,180 200,200 250,180 300,200 350,180 400,200 450,180 500,200 550,180 600,200 650,180 700,200 750,180 800,200 850,180 900,200 950,180 1000,200 1050,180 1100,200 1150,180 1200,200"/>
                
                <polyline points="0,400 40,390 80,400 120,390 160,400 200,390 240,400 280,390 320,400 360,390 400,400 440,390 480,400 520,390 560,400 600,390 640,400 680,390 720,400 760,390 800,400 840,390 880,400 920,390 960,400 1000,390 1040,400 1080,390 1120,400 1160,390 1200,400"/>
                
                <polyline points="0,600 60,585 120,600 180,585 240,600 300,585 360,600 420,585 480,600 540,585 600,600 660,585 720,600 780,585 840,600 900,585 960,600 1020,585 1080,600 1140,585 1200,600"/>
            </g>
            
            <!-- Scattered angular elements -->
            <g stroke="#d4af37" stroke-width="1" fill="none" opacity="0.3">
                <!-- Small angular shapes -->
                <polygon points="150,120 170,100 190,120 170,140"/>
                <polygon points="800,150 815,135 830,150 815,165"/>
                <polygon points="400,320 420,305 440,320 420,335"/>
                <polygon points="950,480 965,465 980,480 965,495"/>
                <polygon points="250,650 270,635 290,650 270,665"/>
                <polygon points="1050,580 1065,565 1080,580 1065,595"/>
            </g>
            
            <!-- Diagonal accent lines -->
            <g stroke="#d4af37" stroke-width="0.5" opacity="0.2">
                <line x1="100" y1="0" x2="300" y2="200"/>
                <line x1="600" y1="0" x2="800" y2="200"/>
                <line x1="900" y1="200" x2="1100" y2="400"/>
                <line x1="200" y1="500" x2="400" y2="700"/>
                <line x1="700" y1="600" x2="900" y2="800"/>
            </g>
        </svg>